0
SECTION
2
HEADER
9
$INSUNITS
70
4
9
$ACADVER
1
AC1014
9
$HANDSEED
5
FFFF
0
ENDSEC
0
SECTION
2
TABLES
0
TABLE
2
VPORT
5
8
100
AcDbSymbolTable
0
ENDTAB
0
TABLE
2
LTYPE
5
5
100
AcDbSymbolTable
0
LTYPE
5
14
100
AcDbSymbolTableRecord
100
AcDbLinetypeTableRecord
2
BYBLOCK
70
0
0
LTYPE
5
15
100
AcDbSymbolTableRecord
100
AcDbLinetypeTableRecord
2
BYLAYER
70
0
0
ENDTAB
0
TABLE
2
LAYER
5
2
100
AcDbSymbolTable
70
2
0
LAYER
5
50
100
AcDbSymbolTableRecord
100
AcDbLayerTableRecord
2
0
70
0
6
CONTINUOUS
0
ENDTAB
0
TABLE
2
STYLE
5
3
100
AcDbSymbolTable
70
1
0
STYLE
5
11
100
AcDbSymbolTableRecord
100
AcDbTextStyleTableRecord
2
STANDARD
70
0
0
ENDTAB
0
TABLE
2
VIEW
5
6
100
AcDbSymbolTable
70
0
0
ENDTAB
0
TABLE
2
UCS
5
7
100
AcDbSymbolTable
70
0
0
ENDTAB
0
TABLE
2
APPID
5
9
100
AcDbSymbolTable
70
2
0
APPID
5
12
100
AcDbSymbolTableRecord
100
AcDbRegAppTableRecord
2
ACAD
70
0
0
ENDTAB
0
TABLE
2
DIMSTYLE
5
A
100
AcDbSymbolTable
70
1
0
ENDTAB
0
TABLE
2
BLOCK_RECORD
5
1
100
AcDbSymbolTable
70
1
0
BLOCK_RECORD
5
1F
100
AcDbSymbolTableRecord
100
AcDbBlockTableRecord
2
*MODEL_SPACE
0
BLOCK_RECORD
5
1B
100
AcDbSymbolTableRecord
100
AcDbBlockTableRecord
2
*PAPER_SPACE
0
ENDTAB
0
ENDSEC
0
SECTION
2
BLOCKS
0
BLOCK
5
20
100
AcDbEntity
100
AcDbBlockBegin
2
*MODEL_SPACE
0
ENDBLK
5
21
100
AcDbEntity
100
AcDbBlockEnd
0
BLOCK
5
1C
100
AcDbEntity
100
AcDbBlockBegin
2
*PAPER_SPACE
0
ENDBLK
5
1D
100
AcDbEntity
100
AcDbBlockEnd
0
ENDSEC
0
SECTION
2
ENTITIES
0
LINE
5
100
100
AcDbEntity
8
0
100
AcDbLine
10
142.91850000000002
20
0.23750000000000049
30
0
11
80.918500000000023
21
0.23750000000000049
31
0
0
LINE
5
101
100
AcDbEntity
8
0
100
AcDbLine
10
47.771030570918839
20
-89.962736001619575
30
0
11
25.084563173501788
21
-85.962499999999991
31
0
0
LINE
5
102
100
AcDbEntity
8
0
100
AcDbLine
10
14.2875
20
-85.962499999999991
30
0
11
25.084563173501788
21
-85.962499999999991
31
0
0
LINE
5
103
100
AcDbEntity
8
0
100
AcDbLine
10
14.2875
20
-85.962499999999991
30
0
11
10.39253557235304
21
-85.962499999999991
31
0
0
LINE
5
104
100
AcDbEntity
8
0
100
AcDbLine
10
47.771030570918839
20
-89.962736001619575
30
0
11
70.733988972977087
21
-94.01172499863344
31
0
0
LINE
5
105
100
AcDbEntity
8
0
100
AcDbLine
10
80.582066512351503
20
-95.748206722830275
30
0
11
104.77500102163592
21
-100.01407368641756
31
0
0
LINE
5
106
100
AcDbEntity
8
0
100
AcDbLine
10
214.91849999999999
20
-85.962499999999991
30
0
11
209.55000000000001
21
-85.962499999999991
31
0
0
LINE
5
107
100
AcDbEntity
8
0
100
AcDbLine
10
209.55000000000001
20
-85.962499999999991
30
0
11
184.46543474759295
21
-85.962499999999991
31
0
0
LINE
5
108
100
AcDbEntity
8
0
100
AcDbLine
10
175.84941029742106
20
-87.481737589569434
30
0
11
184.46543474759295
21
-85.962499999999991
31
0
0
LINE
5
109
100
AcDbEntity
8
0
100
AcDbLine
10
124.2582865698101
20
-96.578644743024697
30
0
11
104.77500102163592
21
-100.01407368641756
31
0
0
LINE
5
110
100
AcDbEntity
8
0
100
AcDbLine
10
175.84941029742106
20
-87.481737589569434
30
0
11
153.10301102983485
21
-91.492541527571518
31
0
0
LINE
5
111
100
AcDbEntity
8
0
100
AcDbLine
10
143.25493350216786
20
-93.229023318164295
30
0
11
124.2582865698101
21
-96.578644743024697
31
0
0
LINE
5
112
100
AcDbEntity
8
0
100
AcDbLine
10
10.391500147813806
20
0.23749999999999938
30
0
11
70.918500000000023
21
0.23749999999999938
31
0
0
LINE
5
113
100
AcDbEntity
8
0
100
AcDbLine
10
152.91849999999999
20
0.23749999999999993
30
0
11
214.91849999999999
21
0.23749999999999993
31
0
0
LWPOLYLINE
5
114
100
AcDbEntity
8
0
100
AcDbPolyline
90
4
70
1
43
0.0
10
124.89403170000001
20
-30.793829600000002
10
122.46295719999999
20
-17.006521100000001
10
136.2502657
20
-14.575446599999999
10
138.68134019999997
20
-28.362755100000005
0
LWPOLYLINE
5
115
100
AcDbEntity
8
0
100
AcDbPolyline
90
4
70
1
43
0.0
10
184.20066030000001
20
-39.680347699999999
10
181.76958580000002
20
-25.893039200000004
10
167.98227730000002
20
-28.324113699999998
10
170.41335180000002
20
-42.1114222
0
LINE
5
116
100
AcDbEntity
8
0
100
AcDbLine
10
152.23477013453845
20
-86.56850276373801
30
0
11
142.38669260687146
21
-88.304984554330801
31
0
0
LWPOLYLINE
5
117
100
AcDbEntity
8
0
100
AcDbPolyline
90
4
70
1
43
0.0
10
138.17611430000002
20
-52.923621400000009
10
124.38880580000001
20
-55.35469590000001
10
126.81988030000001
20
-69.142004400000005
10
140.60718880000002
20
-66.710929899999996
0
LWPOLYLINE
5
118
100
AcDbEntity
8
0
100
AcDbPolyline
90
4
70
1
43
0.0
10
165.44007260000001
20
-42.988345500000008
10
163.00899810000001
20
-29.201037000000003
10
149.22168959999999
20
-31.632111500000004
10
151.65276409999998
20
-45.419420000000002
0
LWPOLYLINE
5
119
100
AcDbEntity
8
0
100
AcDbPolyline
90
4
70
1
43
0.0
10
81.347970500000017
20
-49.554417300000004
10
83.779044999999996
20
-35.767108799999995
10
69.991736500000002
20
-33.336034300000001
10
67.560661999999994
20
-47.123342799999996
0
LWPOLYLINE
5
120
100
AcDbEntity
8
0
100
AcDbPolyline
90
4
70
1
43
0.0
10
181.59500000000003
20
-20.335000000000001
10
181.59500000000003
20
-6.3350000000000009
10
195.595
20
-6.3350000000000017
10
195.595
20
-20.335000000000001
0
LWPOLYLINE
5
121
100
AcDbEntity
8
0
100
AcDbPolyline
90
4
70
1
43
0.0
10
71.090753400000011
20
-52.873697600000007
10
57.303444900000002
20
-50.442623100000006
10
54.872370400000001
20
-64.229931600000015
10
68.659678900000017
20
-66.661006099999994
0
LWPOLYLINE
5
122
100
AcDbEntity
8
0
100
AcDbPolyline
90
4
70
1
43
0.0
10
65.018457400000003
20
-32.459111
10
51.231148900000001
20
-30.028036500000002
10
48.8000744
20
-43.815345000000001
10
62.587382900000001
20
-46.246419500000002
0
LWPOLYLINE
5
123
100
AcDbEntity
8
0
100
AcDbPolyline
90
4
70
1
43
0.0
10
155.0108534
20
-11.267448800000002
10
141.22354490000001
20
-13.698523300000003
10
143.6546194
20
-27.485831800000007
10
157.4419279
20
-25.054757300000006
0
LWPOLYLINE
5
124
100
AcDbEntity
8
0
100
AcDbPolyline
90
4
70
1
43
0.0
10
100.10855820000002
20
-52.862415000000013
10
102.5396327
20
-39.075106499999997
10
88.752324200000018
20
-36.64403200000001
10
86.321249699999996
20
-50.431340500000005
0
LWPOLYLINE
5
125
100
AcDbEntity
8
0
100
AcDbPolyline
90
4
70
1
43
0.0
10
176.2025156
20
-21.746759500000003
10
162.4152071
20
-24.177834000000004
10
159.98413260000001
20
-10.390525500000001
10
173.7714411
20
-7.9594509999999996
0
LWPOLYLINE
5
126
100
AcDbEntity
8
0
100
AcDbPolyline
90
4
70
1
43
0.0
10
55.971387300000011
20
-83.767594900000006
10
42.184078800000002
20
-81.336520399999998
10
44.615153300000003
20
-67.549211900000017
10
58.402461800000012
20
-69.980286400000011
0
LWPOLYLINE
5
127
100
AcDbEntity
8
0
100
AcDbPolyline
90
4
70
1
43
0.0
10
108.61192880000002
20
-59.489693099999997
10
94.824620299999992
20
-57.058618599999996
10
92.393545799999998
20
-70.845927099999997
10
106.18085430000001
20
-73.277001599999991
0
LWPOLYLINE
5
128
100
AcDbEntity
8
0
100
AcDbPolyline
90
4
70
1
43
0.0
10
63.636308200000009
20
-12.871523800000002
10
49.848999700000007
20
-10.440449300000001
10
47.417925200000006
20
-24.227757800000003
10
61.205233700000008
20
-26.658832300000004
0
LWPOLYLINE
5
129
100
AcDbEntity
8
0
100
AcDbPolyline
90
4
70
1
43
0.0
10
175.6972897
20
-46.307625799999997
10
161.9099812
20
-48.738700299999998
10
164.34105569999997
20
-62.5260088
10
178.12836419999999
20
-60.094934299999998
0
LWPOLYLINE
5
130
100
AcDbEntity
8
0
100
AcDbPolyline
90
4
70
1
43
0.0
10
156.936702
20
-49.615623600000013
10
143.1493935
20
-52.0466981
10
145.580468
20
-65.834006599999995
10
159.36777649999999
20
-63.402932100000001
0
LWPOLYLINE
5
131
100
AcDbEntity
8
0
100
AcDbPolyline
90
4
70
1
43
0.0
10
73.632958099999982
20
-67.537929300000002
10
76.06403259999999
20
-53.7506208
10
89.851341100000013
20
-56.181695300000001
10
87.420266599999991
20
-69.969003799999996
0
LINE
5
132
100
AcDbEntity
8
0
100
AcDbLine
10
223.83750000000003
20
-42.862499999999997
30
0
11
223.83750000000003
21
-52.387500000000003
31
0
0
LWPOLYLINE
5
133
100
AcDbEntity
8
0
100
AcDbPolyline
90
4
70
1
43
0.0
10
79.96582140000001
20
-29.966830100000003
10
66.178512900000015
20
-27.535755600000009
10
68.609587400000009
20
-13.7484471
10
82.396895900000004
20
-16.179521599999998
0
LWPOLYLINE
5
134
100
AcDbEntity
8
0
100
AcDbPolyline
90
4
70
1
43
0.0
10
207.31250000000003
20
-59.387500000000003
10
207.31250000000003
20
-45.387500000000003
10
221.3125
20
-45.387500000000003
10
221.3125
20
-59.387500000000003
0
LWPOLYLINE
5
135
100
AcDbEntity
8
0
100
AcDbPolyline
90
4
70
1
43
0.0
10
210.35875000000001
20
-40.337500000000006
10
196.35874999999999
20
-40.337500000000006
10
196.35874999999999
20
-26.337499999999999
10
210.35875000000001
20
-26.337499999999999
0
LWPOLYLINE
5
136
100
AcDbEntity
8
0
100
AcDbPolyline
90
4
70
1
43
0.0
10
98.726409099999998
20
-33.274827899999998
10
84.939100599999989
20
-30.843753399999997
10
87.370175099999997
20
-17.056444900000002
10
101.15748359999999
20
-19.487519400000004
0
LINE
5
137
100
AcDbEntity
8
0
100
AcDbLine
10
71.602229835075505
20
-89.087686228946239
30
0
11
81.450307374449906
21
-90.824167953143075
31
0
0
LWPOLYLINE
5
138
100
AcDbEntity
8
0
100
AcDbPolyline
90
4
70
1
43
0.0
10
132.89217639999998
20
-48.727417799999998
10
130.46110190000002
20
-34.940109300000003
10
144.24841040000001
20
-32.509034800000002
10
146.67948490000001
20
-46.296343300000004
0
LINE
5
139
100
AcDbEntity
8
0
100
AcDbLine
10
93.102310398080334
20
-88.158824725823706
30
0
11
91.516179002939353
21
-87.87914694079862
31
0
0
LINE
5
140
100
AcDbEntity
8
0
100
AcDbLine
10
99.873626753474952
20
-77.694880576162888
30
0
11
101.64962904462369
21
-78.008037726360783
31
0
0
LINE
5
141
100
AcDbEntity
8
0
100
AcDbLine
10
73.358662842097232
20
-73.0195770406891
30
0
11
71.582660550948489
21
-72.706419890491176
31
0
0
LWPOLYLINE
5
142
100
AcDbEntity
8
0
100
AcDbPolyline
90
4
70
1
43
0.0
10
23.192499999999999
20
-21.287500000000001
10
9.1925000000000008
20
-21.287500000000001
10
9.1925000000000008
20
-7.2874999999999996
10
23.192499999999999
20
-7.2874999999999996
0
LWPOLYLINE
5
143
100
AcDbEntity
8
0
100
AcDbPolyline
90
4
70
1
43
0.0
10
21.287500000000001
20
-64.4375
10
7.2874999999999996
20
-64.4375
10
7.2874999999999996
20
-78.4375
10
21.287500000000001
20
-78.4375
0
LINE
5
144
100
AcDbEntity
8
0
100
AcDbLine
10
135.20827730191971
20
-84.850826925823796
30
0
11
136.79440869706073
21
-84.571149140798695
31
0
0
LINE
5
145
100
AcDbEntity
8
0
100
AcDbLine
10
10.39253557235304
20
-80.962499999999991
30
0
11
-0.00050000000000105516
21
-80.962499999999991
31
0
0
LWPOLYLINE
5
146
100
AcDbEntity
8
0
100
AcDbPolyline
90
4
70
1
43
0.0
10
43.826795200000007
20
-42.938421700000006
10
46.257869700000008
20
-29.151113199999998
10
32.470561199999999
20
-26.720038700000003
10
30.039486699999998
20
-40.507347200000005
0
LINE
5
147
100
AcDbEntity
8
0
100
AcDbLine
10
158.86268845757709
20
-81.505254671355019
30
0
11
152.3089898562655
21
-82.660848563916588
31
0
0
LINE
5
148
100
AcDbEntity
8
0
100
AcDbLine
10
136.79440869706073
20
-84.571149140798695
30
0
11
137.16309850000002
21
-86.662092900000005
31
0
0
LINE
5
149
100
AcDbEntity
8
0
100
AcDbLine
10
126.86903795823162
20
-80.853390569442979
30
0
11
127.35421099533363
21
-83.604943462900891
31
0
0
LWPOLYLINE
5
150
100
AcDbEntity
8
0
100
AcDbPolyline
90
4
70
1
43
0.0
10
214.64500000000001
20
-21.287500000000001
10
214.64500000000001
20
-7.2874999999999996
10
200.64500000000004
20
-7.2874999999999996
10
200.64500000000004
20
-21.287500000000001
0
LWPOLYLINE
5
151
100
AcDbEntity
8
0
100
AcDbPolyline
90
4
70
1
43
0.0
10
49.899091200000001
20
-63.353008300000006
10
36.111782700000006
20
-60.921933800000005
10
38.542857200000007
20
-47.134625300000003
10
52.330165700000002
20
-49.565699800000004
0
LINE
5
152
100
AcDbEntity
8
0
100
AcDbLine
10
-0.00050000000000130192
20
-4.7625000000000011
30
0
11
6.6675000000000022
21
-4.7625000000000011
31
0
0
LINE
5
153
100
AcDbEntity
8
0
100
AcDbLine
10
158.63696643699964
20
-75.251847549030586
30
0
11
159.12213947410166
21
-78.003400442488498
31
0
0
LINE
5
154
100
AcDbEntity
8
0
100
AcDbLine
10
99.514867736098168
20
-90.114870307224791
30
0
11
92.961169134786559
21
-88.959276414663293
31
0
0
LINE
5
155
100
AcDbEntity
8
0
100
AcDbLine
10
135.34941856521354
20
-85.651278614663383
30
0
11
135.20827730191971
21
-84.850826925823796
31
0
0
LINE
5
156
100
AcDbEntity
8
0
100
AcDbLine
10
76.360356861111327
20
-73.548856632854807
30
0
11
76.563247431392981
21
-72.398207245247335
31
0
0
LINE
5
157
100
AcDbEntity
8
0
100
AcDbLine
10
76.142739141230351
20
-85.168394581107862
30
0
11
77.728870520478793
21
-85.448072341327617
31
0
0
LINE
5
158
100
AcDbEntity
8
0
100
AcDbLine
10
69.188448225898341
20
-81.311398242488679
30
0
11
70.038928235545782
21
-81.461360787775291
31
0
0
LINE
5
159
100
AcDbEntity
8
0
100
AcDbLine
10
127.41077150000002
20
-78.952439800000008
30
0
11
126.81974260000001
21
-75.600548099999997
31
0
0
LINE
5
160
100
AcDbEntity
8
0
100
AcDbLine
10
97.074823210773232
20
-76.01495156218769
30
0
11
100.07651728955459
21
-76.544231282524692
31
0
0
LINE
5
161
100
AcDbEntity
8
0
100
AcDbLine
10
148.7248277467209
20
-71.609131347111088
30
0
11
150.31095909316895
21
-71.329453592674895
31
0
0
LINE
5
162
100
AcDbEntity
8
0
100
AcDbLine
10
133.35138789608629
20
-74.319883609219659
30
0
11
133.21465725668784
21
-73.544446033799375
31
0
0
LWPOLYLINE
5
163
100
AcDbEntity
8
0
100
AcDbPolyline
90
4
70
1
43
0.0
10
181.436362
20
-78.855521999999993
10
167.64905349999998
20
-81.286596500000016
10
165.21797900000001
20
-67.499288000000007
10
179.00528750000004
20
-65.068213499999999
0
LINE
5
164
100
AcDbEntity
8
0
100
AcDbLine
10
96.871932734460842
20
-77.165600983997166
30
0
11
97.074823210773232
21
-76.01495156218769
31
0
0
LINE
5
165
100
AcDbEntity
8
0
100
AcDbLine
10
70.038928235545782
20
-81.461360787775291
30
0
11
69.447899242422949
21
-84.813252471355227
31
0
0
LWPOLYLINE
5
166
100
AcDbEntity
8
0
100
AcDbPolyline
90
4
70
1
43
0.0
10
199.88124999999999
20
-45.387500000000003
10
185.88125000000002
20
-45.387500000000003
10
185.88125000000002
20
-59.387500000000003
10
199.88124999999999
20
-59.387500000000003
0
LINE
5
167
100
AcDbEntity
8
0
100
AcDbLine
10
126.66095865537626
20
-74.700039926360958
30
0
11
127.71951796787906
21
-80.703428024156381
31
0
0
LINE
5
168
100
AcDbEntity
8
0
100
AcDbLine
10
93.37306845209325
20
-77.348203653836123
30
0
11
94.959199803913663
21
-77.627881409219583
31
0
0
LWPOLYLINE
5
169
100
AcDbEntity
8
0
100
AcDbPolyline
90
4
70
1
43
0.0
10
22.716249999999999
20
-26.337499999999999
10
8.7162500000000005
20
-26.337499999999999
10
8.7162500000000005
20
-40.337500000000006
10
22.716249999999999
20
-40.337500000000006
0
LINE
5
170
100
AcDbEntity
8
0
100
AcDbLine
10
128.79571996390192
20
-86.806872507224966
30
0
11
135.34941856521354
21
-85.651278614663383
31
0
0
LINE
5
171
100
AcDbEntity
8
0
100
AcDbLine
10
101.44154974176844
20
-84.161388369442818
30
0
11
100.95637670466645
21
-86.912941262900745
31
0
0
LINE
5
172
100
AcDbEntity
8
0
100
AcDbLine
10
76.563247431392981
20
-72.398207245247335
30
0
11
73.561553318409622
21
-71.86892761887961
31
0
0
LINE
5
173
100
AcDbEntity
8
0
100
AcDbLine
10
159.12213947410166
20
-78.003400442488498
30
0
11
158.27165946445422
21
-78.153362987775111
31
0
0
LINE
5
174
100
AcDbEntity
8
0
100
AcDbLine
10
69.673621263000328
20
-78.55984534903078
30
0
11
69.188448225898341
21
-81.311398242488679
31
0
0
LINE
5
175
100
AcDbEntity
8
0
100
AcDbLine
10
127.71951796787906
20
-80.703428024156381
30
0
11
126.86903795823162
21
-80.853390569442979
31
0
0
LINE
5
176
100
AcDbEntity
8
0
100
AcDbLine
10
77.999628606830953
20
-74.63745139267499
30
0
11
78.136359152260084
21
-73.862013783052703
31
0
0
LINE
5
177
100
AcDbEntity
8
0
100
AcDbLine
10
100.95637670466645
20
-86.912941262900745
30
0
11
100.10589672922102
21
-86.762978623644898
31
0
0
LINE
5
178
100
AcDbEntity
8
0
100
AcDbLine
10
152.16784855876966
20
-81.860396781107738
30
0
11
150.58171717952126
21
-82.140074541327522
31
0
0
LINE
5
179
100
AcDbEntity
8
0
100
AcDbLine
10
158.81339300000002
20
-76.252412300000003
30
0
11
158.63696643699964
21
-75.251847549030586
31
0
0
LINE
5
180
100
AcDbEntity
8
0
100
AcDbLine
10
-0.00050000000000105516
20
-80.962499999999991
30
0
11
-0.00050000000000105516
21
-42.862499999999997
31
0
0
LINE
5
181
100
AcDbEntity
8
0
100
AcDbLine
10
148.7248277467209
20
-71.609131347111088
30
0
11
148.51933249999999
21
-70.443709900000016
31
0
0
LINE
5
182
100
AcDbEntity
8
0
100
AcDbLine
10
77.360180700000001
20
-87.539016200000006
30
0
11
91.147489199999995
21
-89.970090700000014
31
0
0
LINE
5
183
100
AcDbEntity
8
0
100
AcDbLine
10
93.578563700000004
20
-76.182782200000005
30
0
11
93.37306845209325
21
-77.348203653836123
31
0
0
LINE
5
184
100
AcDbEntity
8
0
100
AcDbLine
10
151.74734026860693
20
-69.09020944524724
30
0
11
154.74903438159029
21
-68.560929818879458
31
0
0
LWPOLYLINE
5
185
100
AcDbEntity
8
0
100
AcDbPolyline
90
4
70
1
43
0.0
10
42.444645999999999
20
-23.350834500000005
10
28.657337500000004
20
-20.919760000000004
10
31.088412000000002
20
-7.1324515000000011
10
44.8757205
20
-9.5635259999999995
0
LINE
5
186
100
AcDbEntity
8
0
100
AcDbLine
10
84.801052594097683
20
-17.085766915321937
30
0
11
84.801052594097683
21
-17.085766915321937
31
0
0
LINE
5
187
100
AcDbEntity
8
0
100
AcDbLine
10
223.83750000000003
20
-42.862499999999997
30
0
11
223.83750000000003
21
-4.7625000000000002
31
0
0
LINE
5
188
100
AcDbEntity
8
0
100
AcDbLine
10
128.20469097077907
20
-83.454980823645016
30
0
11
128.79571996390192
21
-86.806872507224966
31
0
0
LINE
5
189
100
AcDbEntity
8
0
100
AcDbLine
10
133.21465725668784
20
-73.544446033799375
30
0
11
131.43865496553911
21
-73.857603183997298
31
0
0
LINE
5
190
100
AcDbEntity
8
0
100
AcDbLine
10
128.23407041044538
20
-73.236233482524852
30
0
11
128.43696094652501
21
-74.386882776163063
31
0
0
LINE
5
191
100
AcDbEntity
8
0
100
AcDbLine
10
131.43865496553911
20
-73.857603183997298
30
0
11
131.23576448922674
21
-72.706953762187823
31
0
0
LINE
5
192
100
AcDbEntity
8
0
100
AcDbLine
10
127.35421099533363
20
-83.604943462900891
30
0
11
128.20469097077907
21
-83.454980823645016
31
0
0
LWPOLYLINE
5
193
100
AcDbEntity
8
0
100
AcDbPolyline
90
4
70
1
43
0.0
10
9.6687499999999993
20
-59.387500000000003
10
9.6687499999999993
20
-45.387500000000003
10
23.668749999999999
20
-45.387500000000003
10
23.668749999999999
20
-59.387500000000003
0
LINE
5
194
100
AcDbEntity
8
0
100
AcDbLine
10
131.23576448922674
20
-72.706953762187823
30
0
11
128.23407041044538
21
-73.236233482524852
31
0
0
LINE
5
195
100
AcDbEntity
8
0
100
AcDbLine
10
134.732024
20
-72.87478440000001
30
0
11
148.51933249999999
21
-70.443709900000016
31
0
0
LINE
5
196
100
AcDbEntity
8
0
100
AcDbLine
10
134.732024
20
-72.87478440000001
30
0
11
134.93751924790672
21
-74.040205853836184
31
0
0
LINE
5
197
100
AcDbEntity
8
0
100
AcDbLine
10
92.961169134786559
20
-88.959276414663293
30
0
11
93.102310398080334
21
-88.158824725823706
31
0
0
LINE
5
198
100
AcDbEntity
8
0
100
AcDbLine
10
158.27165946445422
20
-78.153362987775111
30
0
11
158.86268845757709
21
-81.505254671355019
31
0
0
LINE
5
199
100
AcDbEntity
8
0
100
AcDbLine
10
79.791255200000009
20
-73.751707700000011
30
0
11
93.578563700000004
21
-76.182782200000005
31
0
0
LINE
5
200
100
AcDbEntity
8
0
100
AcDbLine
10
137.16309850000002
20
-86.662092900000005
30
0
11
150.95040700000001
21
-84.231018399999996
31
0
0
LINE
5
201
100
AcDbEntity
8
0
100
AcDbLine
10
127.04546450000002
20
-81.853955200000001
30
0
11
126.86903795823162
21
-80.853390569442979
31
0
0
LINE
5
202
100
AcDbEntity
8
0
100
AcDbLine
10
157.7864864615542
20
-75.401810188286447
30
0
11
158.63696643699964
21
-75.251847549030586
31
0
0
LINE
5
203
100
AcDbEntity
8
0
100
AcDbLine
10
157.47773999999998
20
-73.650822000000005
30
0
11
156.88671110000001
21
-70.298930299999995
31
0
0
LINE
5
204
100
AcDbEntity
8
0
100
AcDbLine
10
150.58171717952126
20
-82.140074541327522
30
0
11
150.95040700000001
21
-84.231018399999996
31
0
0
LINE
5
205
100
AcDbEntity
8
0
100
AcDbLine
10
70.832847700000002
20
-76.958819800000001
30
0
11
71.4238766
21
-73.606928100000005
31
0
0
LINE
5
206
100
AcDbEntity
8
0
100
AcDbLine
10
-0.00050000000000105516
20
-42.862499999999997
30
0
11
-0.00050000000000130192
21
-4.7625000000000011
31
0
0
LINE
5
207
100
AcDbEntity
8
0
100
AcDbLine
10
223.83750000000003
20
-80.962499999999991
30
0
11
214.91849999999999
21
-80.962499999999991
31
0
0
LINE
5
208
100
AcDbEntity
8
0
100
AcDbLine
10
150.31095909316895
20
-71.329453592674895
30
0
11
150.17422854773986
21
-70.554015983052608
31
0
0
LINE
5
209
100
AcDbEntity
8
0
100
AcDbLine
10
69.447899242422949
20
-84.813252471355227
30
0
11
76.001597843734572
21
-85.968846363916711
31
0
0
LINE
5
210
100
AcDbEntity
8
0
100
AcDbLine
10
150.17422854773986
20
-70.554015983052608
30
0
11
151.95023083888859
21
-70.240858832854684
31
0
0
LINE
5
211
100
AcDbEntity
8
0
100
AcDbLine
10
76.001597843734572
20
-85.968846363916711
30
0
11
76.142739141230351
21
-85.168394581107862
31
0
0
LINE
5
212
100
AcDbEntity
8
0
100
AcDbLine
10
152.3089898562655
20
-82.660848563916588
30
0
11
152.16784855876966
21
-81.860396781107738
31
0
0
LINE
5
213
100
AcDbEntity
8
0
100
AcDbLine
10
91.516179002939353
20
-87.87914694079862
30
0
11
91.147489199999995
21
-89.970090700000014
31
0
0
LINE
5
214
100
AcDbEntity
8
0
100
AcDbLine
10
71.582660550948489
20
-72.706419890491176
30
0
11
70.524101238445752
21
-78.709807988286627
31
0
0
LINE
5
215
100
AcDbEntity
8
0
100
AcDbLine
10
79.791255200000009
20
-73.751707700000011
30
0
11
79.585759953279037
21
-74.917129147111169
31
0
0
LINE
5
216
100
AcDbEntity
8
0
100
AcDbLine
10
95.095930443312085
20
-76.852443833799299
30
0
11
96.871932734460842
21
-77.165600983997166
31
0
0
LINE
5
217
100
AcDbEntity
8
0
100
AcDbLine
10
154.74903438159029
20
-68.560929818879458
30
0
11
154.95192485790267
21
-69.711579240688948
31
0
0
LINE
5
218
100
AcDbEntity
8
0
100
AcDbLine
10
134.93751924790672
20
-74.040205853836184
30
0
11
133.35138789608629
21
-74.319883609219659
31
0
0
LINE
5
219
100
AcDbEntity
8
0
100
AcDbLine
10
128.43696094652501
20
-74.386882776163063
30
0
11
126.66095865537626
21
-74.700039926360958
31
0
0
LINE
5
220
100
AcDbEntity
8
0
100
AcDbLine
10
73.561553318409622
20
-71.86892761887961
30
0
11
73.358662842097232
21
-73.0195770406891
31
0
0
LWPOLYLINE
5
221
100
AcDbEntity
8
0
100
AcDbPolyline
90
4
70
1
43
0.0
10
216.55000000000001
20
-78.4375
10
202.55000000000001
20
-78.4375
10
202.55000000000001
20
-64.4375
10
216.55000000000001
20
-64.4375
0
LINE
5
222
100
AcDbEntity
8
0
100
AcDbLine
10
223.83750000000003
20
-52.387500000000003
30
0
11
223.83750000000003
21
-80.962499999999991
31
0
0
LINE
5
223
100
AcDbEntity
8
0
100
AcDbLine
10
100.89981620000002
20
-82.260437599999989
30
0
11
101.4908451
21
-78.908545900000007
31
0
0
LINE
5
224
100
AcDbEntity
8
0
100
AcDbLine
10
154.95192485790267
20
-69.711579240688948
30
0
11
156.72792714905145
21
-69.39842209049101
31
0
0
LINE
5
225
100
AcDbEntity
8
0
100
AcDbLine
10
100.59106973212099
20
-84.011425824156191
30
0
11
101.44154974176844
21
-84.161388369442818
31
0
0
LINE
5
226
100
AcDbEntity
8
0
100
AcDbLine
10
156.72792714905145
20
-69.39842209049101
30
0
11
157.7864864615542
21
-75.401810188286447
31
0
0
LINE
5
227
100
AcDbEntity
8
0
100
AcDbLine
10
77.728870520478793
20
-85.448072341327617
30
0
11
77.360180700000001
21
-87.539016200000006
31
0
0
LINE
5
228
100
AcDbEntity
8
0
100
AcDbLine
10
101.26512320000002
20
-85.161952999999997
30
0
11
101.44154974176844
21
-84.161388369442818
31
0
0
LINE
5
229
100
AcDbEntity
8
0
100
AcDbLine
10
70.524101238445752
20
-78.709807988286627
30
0
11
69.673621263000328
21
-78.55984534903078
31
0
0
LINE
5
230
100
AcDbEntity
8
0
100
AcDbLine
10
78.136359152260084
20
-73.862013783052703
30
0
11
76.360356861111327
21
-73.548856632854807
31
0
0
LINE
5
231
100
AcDbEntity
8
0
100
AcDbLine
10
94.959199803913663
20
-77.627881409219583
30
0
11
95.095930443312085
21
-76.852443833799299
31
0
0
LINE
5
232
100
AcDbEntity
8
0
100
AcDbLine
10
100.10589672922102
20
-86.762978623644898
30
0
11
99.514867736098168
21
-90.114870307224791
31
0
0
LINE
5
233
100
AcDbEntity
8
0
100
AcDbLine
10
100.07651728955459
20
-76.544231282524692
30
0
11
99.873626753474952
21
-77.694880576162888
31
0
0
LINE
5
234
100
AcDbEntity
8
0
100
AcDbLine
10
101.64962904462369
20
-78.008037726360783
30
0
11
100.59106973212099
21
-84.011425824156191
31
0
0
LINE
5
235
100
AcDbEntity
8
0
100
AcDbLine
10
151.95023083888859
20
-70.240858832854684
30
0
11
151.74734026860693
21
-69.09020944524724
31
0
0
LINE
5
236
100
AcDbEntity
8
0
100
AcDbLine
10
79.585759953279037
20
-74.917129147111169
30
0
11
77.999628606830953
21
-74.63745139267499
31
0
0
LINE
5
237
100
AcDbEntity
8
0
100
AcDbLine
10
214.91849999999999
20
0.23749999999999993
30
0
11
214.91849999999999
21
-4.7625000000000002
31
0
0
LINE
5
238
100
AcDbEntity
8
0
100
AcDbLine
10
152.91849999999999
20
0.23749999999999993
30
0
11
152.91849999999999
21
-4.7624999999999993
31
0
0
LINE
5
239
100
AcDbEntity
8
0
100
AcDbLine
10
142.91850000000002
20
0.23750000000000049
30
0
11
142.91850000000002
21
-4.7624999999999993
31
0
0
LINE
5
240
100
AcDbEntity
8
0
100
AcDbLine
10
80.918500000000023
20
0.23750000000000049
30
0
11
80.918500000000023
21
-4.7625000000000002
31
0
0
LINE
5
241
100
AcDbEntity
8
0
100
AcDbLine
10
70.918500000000023
20
0.23749999999999938
30
0
11
70.918500000000023
21
-4.7625000000000002
31
0
0
LINE
5
242
100
AcDbEntity
8
0
100
AcDbLine
10
10.391500147813806
20
0.23749999999999938
30
0
11
10.391500147813806
21
-4.7625000000000011
31
0
0
LINE
5
243
100
AcDbEntity
8
0
100
AcDbLine
10
70.733988972977087
20
-94.01172499863344
30
0
11
71.602229835075505
21
-89.087686228946239
31
0
0
LINE
5
244
100
AcDbEntity
8
0
100
AcDbLine
10
80.582066512351503
20
-95.748206722830275
30
0
11
81.450307374449906
21
-90.824167953143075
31
0
0
LINE
5
245
100
AcDbEntity
8
0
100
AcDbLine
10
143.25493350216786
20
-93.229023318164295
30
0
11
142.38669260687146
21
-88.304984554330801
31
0
0
LINE
5
246
100
AcDbEntity
8
0
100
AcDbLine
10
153.10301102983485
20
-91.492541527571518
30
0
11
152.23477013453845
21
-86.56850276373801
31
0
0
LINE
5
247
100
AcDbEntity
8
0
100
AcDbLine
10
214.91849999999999
20
-85.962499999999991
30
0
11
214.91849999999999
21
-80.962499999999991
31
0
0
LINE
5
248
100
AcDbEntity
8
0
100
AcDbLine
10
10.39253557235304
20
-85.962499999999991
30
0
11
10.39253557235304
21
-85.58488641679746
31
0
0
LINE
5
249
100
AcDbEntity
8
0
100
AcDbLine
10
10.39253557235304
20
-85.58488641679746
30
0
11
10.39253557235304
21
-80.962499999999991
31
0
0
LINE
5
250
100
AcDbEntity
8
0
100
AcDbLine
10
6.6675000000000022
20
-4.7625000000000011
30
0
11
10.391500147813806
21
-4.7625000000000011
31
0
0
LINE
5
251
100
AcDbEntity
8
0
100
AcDbLine
10
70.918500000000023
20
-4.7625000000000002
30
0
11
80.918500000000023
21
-4.7625000000000002
31
0
0
LINE
5
252
100
AcDbEntity
8
0
100
AcDbLine
10
223.83750000000003
20
-4.7625000000000002
30
0
11
214.91849999999999
21
-4.7625000000000002
31
0
0
LINE
5
253
100
AcDbEntity
8
0
100
AcDbLine
10
152.91849999999999
20
-4.7624999999999993
30
0
11
142.91850000000002
21
-4.7624999999999993
31
0
0
LINE
5
254
100
AcDbEntity
8
0
100
AcDbLine
10
69.673621263000328
20
-78.55984534903078
30
0
11
71.373532618905344
21
-68.919168369583772
31
0
0
LINE
5
255
100
AcDbEntity
8
0
100
AcDbLine
10
75.50086202702596
20
-69.646927856327551
30
0
11
71.373532618905344
21
-68.919168369583772
31
0
0
LINE
5
256
100
AcDbEntity
8
0
100
AcDbLine
10
75.50086202702596
20
-69.646927856327551
30
0
11
103.14146123545954
21
-74.520711300017297
31
0
0
LINE
5
257
100
AcDbEntity
8
0
100
AcDbLine
10
101.44154974176844
20
-84.161388369442818
30
0
11
103.14146123545954
21
-74.520711300017297
31
0
0
LINE
5
258
100
AcDbEntity
8
0
100
AcDbLine
10
69.188448225898341
20
-81.311398242488679
30
0
11
68.369870712949179
21
-85.953781971244297
31
0
0
LINE
5
259
100
AcDbEntity
8
0
100
AcDbLine
10
100.95637670466645
20
-86.912941262900745
30
0
11
100.13779882226606
21
-91.555324864434326
31
0
0
LINE
5
260
100
AcDbEntity
8
0
100
AcDbLine
10
91.147489199999995
20
-89.970090700000014
30
0
11
100.13779882226606
21
-91.555324864434326
31
0
0
LINE
5
261
100
AcDbEntity
8
0
100
AcDbLine
10
77.360180700000001
20
-87.539016200000006
30
0
11
68.369870712949179
21
-85.953781971244297
31
0
0
LINE
5
262
100
AcDbEntity
8
0
100
AcDbLine
10
126.86903795823162
20
-80.853390569442979
30
0
11
125.1691268016009
21
-71.212713598215757
31
0
0
LINE
5
263
100
AcDbEntity
8
0
100
AcDbLine
10
129.29645574786704
20
-70.484954055409318
30
0
11
125.1691268016009
21
-71.212713598215757
31
0
0
LINE
5
264
100
AcDbEntity
8
0
100
AcDbLine
10
129.29645574786704
20
-70.484954055409318
30
0
11
156.9370546753529
21
-65.611170089980163
31
0
0
LINE
5
265
100
AcDbEntity
8
0
100
AcDbLine
10
158.63696643699964
20
-75.251847549030586
30
0
11
156.9370546753529
21
-65.611170089980163
31
0
0
LINE
5
266
100
AcDbEntity
8
0
100
AcDbLine
10
159.12213947410166
20
-78.003400442488498
30
0
11
159.94071688871404
21
-82.6457844867586
31
0
0
LINE
5
267
100
AcDbEntity
8
0
100
AcDbLine
10
150.95040700000001
20
-84.231018399999996
30
0
11
159.94071688871404
21
-82.6457844867586
31
0
0
LINE
5
268
100
AcDbEntity
8
0
100
AcDbLine
10
137.16309850000002
20
-86.662092900000005
30
0
11
128.17278849766683
21
-88.247327131450419
31
0
0
LINE
5
269
100
AcDbEntity
8
0
100
AcDbLine
10
127.35421099533363
20
-83.604943462900891
30
0
11
128.17278849766683
21
-88.247327131450419
31
0
0
ENDSEC
0
SECTION
2
OBJECTS
0
DICTIONARY
5
C
100
AcDbDictionary
3
ACAD_GROUP
350
D
3
ACAD_MLINESTYLE
350
17
0
DICTIONARY
5
D
100
AcDbDictionary
0
DICTIONARY
5
1A
330
C
100
AcDbDictionary
0
DICTIONARY
5
17
100
AcDbDictionary
0
ENDSEC
0
EOF
